:SAMPLES-PER-SECOND 30
:FULLY-SPECIFIED
:DEGREES
49
root  75.2219 40.5038 -0.68373 -170.701 -86.6097 170.556
RightUpLeg  1.87404 -8.04878 -5.86688
RightLeg  2.68998 -2.28632 3.282
RightFoot  -2.86588 -0.0496878 0.406651
RightToes  5.82063e-011 0 -3.6325e-017
Spine  -1.50065 -0.33147 1.57499
Spine1  6.70135 -0.0477878 -1.40191
HEad  -6.67155 1.32966 -1.78923
LeftShoulder1  0.847443 -1.85688 -7.89871
LeftArm  -14.6199 8.01778 2.3925
LeftForeArm  10.6581 -2.18213 -2.87609
LeftHand  -0.244104 0.0205437 5.32207
RightShoulder  0.636752 1.58408 4.65643
RightArm  -18.4255 1.66272 -0.528377
RightForeArm  1.38977 0.0607308 3.82876
RightHand  -0.883772 2.41178 -13.3134
LeftUpLeg  2.16736 5.3133 3.80757
LeftLeg  0.527247 11.3021 -3.87934
LeftFoot  -2.44811 0.166065 -1.84832
LeftToes  4.36525e-011 -9.98543e-011 1.0027e-011
50
root  75.2221 40.5037 -0.684287 -170.814 -86.5662 170.625
RightUpLeg  1.92299 -8.04981 -5.87685
RightLeg  2.68181 -2.2322 3.28369
RightFoot  -2.86939 -0.0483819 0.38638
RightToes  5.82063e-011 0 -3.6325e-017
Spine  -1.47325 -0.296864 1.64892
Spine1  6.71983 0.008162 -1.4912
HEad  -6.68331 1.3463 -1.76143
LeftShoulder1  0.846187 -1.91736 -7.88407
LeftArm  -14.5563 8.02372 2.38068
LeftForeArm  10.8633 -2.17239 -2.89292
LeftHand  -0.244104 0.0205437 5.32207
RightShoulder  0.635406 1.53967 4.75625
RightArm  -18.3734 1.70464 -0.60708
RightForeArm  1.32629 0.0659129 3.85442
RightHand  -0.882322 2.37773 -13.3477
LeftUpLeg  2.23715 5.32486 3.8097
LeftLeg  0.497348 11.3253 -3.89335
LeftFoot  -2.45024 0.165292 -1.82244
LeftToes  4.36525e-011 -9.98543e-011 1.0027e-011
51
root  75.2231 40.5035 -0.686019 -170.935 -86.5472 170.733
RightUpLeg  1.93897 -8.04617 -5.87232
RightLeg  2.67327 -2.21323 3.28884
RightFoot  -2.86625 -0.0462875 0.353868
RightToes  5.82063e-011 0 -3.6325e-017
Spine  -1.49528 -0.279436 1.72464
Spine1  6.76902 0.0489442 -1.59262
HEad  -6.67191 1.43133 -1.66519
LeftShoulder1  0.843585 -1.96532 -7.82759
LeftArm  -14.4777 8.03704 2.35875
LeftForeArm  10.9947 -2.12034 -2.91279
LeftHand  -0.244104 0.0205437 5.32207
RightShoulder  0.632094 1.49489 4.82752
RightArm  -18.3117 1.7234 -0.625034
RightForeArm  1.28305 0.0950708 3.88453
RightHand  -0.898343 2.48176 -13.4129
LeftUpLeg  2.25164 5.32997 3.81411
LeftLeg  0.501176 11.3402 -3.89103
LeftFoot  -2.45282 0.163891 -1.78698
LeftToes  4.36525e-011 -9.98543e-011 1.0027e-011
52
root  75.227 40.5032 -0.688861 -171.001 -86.58 170.823
RightUpLeg  1.91122 -8.03077 -5.84825
RightLeg  2.67313 -2.26531 3.28571
RightFoot  -2.87556 -0.0464611 0.356563
RightToes  5.82063e-011 0 -3.6325e-017
Spine  -1.5553 -0.305916 1.76243
Spine1  6.83957 0.0298099 -1.63554
HEad  -6.6615 1.49968 -1.59083
LeftShoulder1  0.835227 -1.93431 -7.74451
LeftArm  -14.476 8.07513 2.29462
LeftForeArm  11.0134 -2.12511 -2.9104
LeftHand  -0.244104 0.0205437 5.32207
RightShoulder  0.62873 1.48204 4.78395
RightArm  -18.3643 1.74906 -0.52653
RightForeArm  1.42854 0.0719952 3.85984
RightHand  -0.918308 2.63674 -13.451
LeftUpLeg  2.18697 5.33462 3.82437
LeftLeg  0.562434 11.3102 -3.87333
LeftFoot  -2.46185 0.164912 -1.78954
LeftToes  4.36525e-011 -9.98543e-011 1.0027e-011
53
root  75.2341 40.5027 -0.69031 -171.2 -86.6226 171.052
RightUpLeg  1.86767 -8.00865 -5.81493
RightLeg  2.68714 -2.32803 3.28117
RightFoot  -2.89614 -0.0479914 0.380318
RightToes  5.82063e-011 0 -3.6325e-017
Spine  -1.53969 -0.319893 1.77635
Spine1  6.78154 0.00747076 -1.61541
HEad  -6.61204 1.4126 -1.68144
LeftShoulder1  0.824804 -1.8993 -7.63985
LeftArm  -14.5353 8.13518 2.17246
LeftForeArm  10.9119 -2.20525 -2.89581
LeftHand  -0.244104 0.0205437 5.32207
RightShoulder  0.62758 1.49497 4.70337
RightArm  -18.417 1.73144 -0.456617
RightForeArm  1.63772 0.00632087 3.81646
RightHand  -0.920179 2.65301 -13.4517
LeftUpLeg  2.10575 5.35902 3.85638
LeftLeg  0.637366 11.2459 -3.8688
LeftFoot  -2.48423 0.16836 -1.83033
LeftToes  4.36525e-011 -9.98543e-011 1.0027e-011
54
root  75.2398 40.5023 -0.689993 -171.474 -86.6249 171.338
RightUpLeg  1.83718 -8.01295 -5.80165
RightLeg  2.71134 -2.31782 3.29763
RightFoot  -2.90931 -0.0467108 0.36044
RightToes  5.82063e-011 0 -3.6325e-017
Spine  -1.42948 -0.26383 1.85737
Spine1  6.58203 0.0770997 -1.68173
HEad  -6.50955 1.2581 -1.84428
LeftShoulder1  0.829682 -1.98495 -7.47619
LeftArm  -14.5496 8.17054 2.0135
LeftForeArm  10.7553 -2.24348 -2.90142
LeftHand  -0.244104 0.0205437 5.32207
RightShoulder  0.632066 1.49787 4.79644
RightArm  -18.2408 1.59227 -0.614274
RightForeArm  1.3831 0.0553682 3.87231
RightHand  -0.892856 2.38226 -13.4969
LeftUpLeg  2.07668 5.39214 3.89213
LeftLeg  0.658657 11.2085 -3.88763
LeftFoot  -2.49987 0.171596 -1.86848
LeftToes  4.36525e-011 -9.98543e-011 1.0027e-011
55
root  75.2428 40.5018 -0.691171 -171.487 -86.5834 171.336
RightUpLeg  1.83387 -8.05185 -5.82639
RightLeg  2.73735 -2.23 3.3324
RightFoot  -2.91238 -0.042983 0.302571
RightToes  5.82063e-011 0 -3.6325e-017
Spine  -1.36484 -0.177217 2.05476
Spine1  6.50093 0.226264 -1.94874
HEad  -6.4355 1.24514 -1.8594
LeftShoulder1  0.842966 -2.15283 -7.24166
LeftArm  -14.4982 8.17034 1.85307
LeftForeArm  10.6427 -2.1701 -2.92286
LeftHand  -0.244104 0.0205437 5.32207
RightShoulder  0.645367 1.4912 5.11567
RightArm  -17.9466 1.40983 -0.961623
RightForeArm  0.768346 0.253081 4.00386
RightHand  -0.850656 1.989 -13.526
LeftUpLeg  2.11115 5.40111 3.89682
LeftLeg  0.623428 11.2415 -3.9059
LeftFoot  -2.50049 0.173761 -1.89081
LeftToes  4.36525e-011 -9.98543e-011 1.0027e-011
56
root  75.2442 40.5015 -0.695923 -171.252 -86.5173 171.064
RightUpLeg  1.85574 -8.08676 -5.86474
RightLeg  2.75602 -2.12795 3.35139
RightFoot  -2.92091 -0.041917 0.286023
RightToes  5.82063e-011 0 -3.6325e-017
Spine  -1.35508 -0.120941 2.28728
Spine1  6.58177 0.365052 -2.29657
HEad  -6.41715 1.32947 -1.75381
LeftShoulder1  0.847418 -2.27475 -6.97944
LeftArm  -14.4174 8.2216 1.71287
LeftForeArm  10.5516 -2.09743 -2.94586
LeftHand  -0.244104 0.0205437 5.32207
RightShoulder  0.660941 1.4804 5.49949
RightArm  -17.8797 1.36767 -1.29291
RightForeArm  0.761845 0.3768 4.03661
RightHand  -0.829293 1.89505 -13.3584
LeftUpLeg  2.17792 5.3876 3.87606
LeftLeg  0.583021 11.3227 -3.9098
LeftFoot  -2.49782 0.175267 -1.90386
LeftToes  4.36525e-011 -9.98543e-011 1.0027e-011
57
root  75.2433 40.5012 -0.701266 -171.071 -86.4516 170.852
RightUpLeg  1.87694 -8.08985 -5.88319
RightLeg  2.76433 -2.06367 3.34072
RightFoot  -2.94075 -0.0442918 0.322888
RightToes  5.82063e-011 0 -3.6325e-017
Spine  -1.24133 -0.0845321 2.42648
Spine1  6.51675 0.448039 -2.49205
HEad  -6.36838 1.31242 -1.74432
LeftShoulder1  0.848869 -2.3492 -6.80071
LeftArm  -14.2358 8.37967 1.66442
LeftForeArm  10.3391 -2.14307 -3.00959
LeftHand  -0.244104 0.0205437 5.32207
RightShoulder  0.668984 1.44739 5.7816
RightArm  -18.0308 1.4758 -1.513
RightForeArm  1.50937 0.283849 3.94564
RightHand  -0.846182 2.19277 -13.1114
LeftUpLeg  2.23095 5.37772 3.85927
LeftLeg  0.564663 11.396 -3.91108
LeftFoot  -2.49331 0.175275 -1.89476
LeftToes  4.36525e-011 -9.98543e-011 1.0027e-011
58
root  75.2422 40.501 -0.70388 -170.904 -86.4225 170.684
RightUpLeg  1.87176 -8.08723 -5.88978
RightLeg  2.77445 -2.04211 3.32816
RightFoot  -2.95951 -0.0449873 0.333685
RightToes  5.82063e-011 0 -3.6325e-017
Spine  -1.11375 -0.0528535 2.42354
Spine1  6.37943 0.46389 -2.42124
HEad  -6.30164 1.27308 -1.86422
LeftShoulder1  0.86851 -2.43826 -6.92824
LeftArm  -13.932 8.52102 1.87374
LeftForeArm  10.0784 -2.23964 -3.1257
LeftHand  -0.244104 0.0205437 5.32207
RightShoulder  0.667835 1.42705 5.81816
RightArm  -18.1059 1.54137 -1.58594
RightForeArm  1.78143 0.161764 3.89864
RightHand  -0.871307 2.4103 -13.1322
LeftUpLeg  2.24199 5.36811 3.8436
LeftLeg  0.552286 11.4299 -3.91206
LeftFoot  -2.48347 0.174276 -1.87128
LeftToes  4.36525e-011 -9.98543e-011 1.0027e-011
59
root  75.243 40.501 -0.706642 -170.616 -86.4345 170.399
RightUpLeg  1.8611 -8.1026 -5.90386
RightLeg  2.79706 -2.03905 3.33343
RightFoot  -2.96589 -0.0422562 0.291288
RightToes  5.82063e-011 0 -3.6325e-017
Spine  -1.23302 -0.0540044 2.33394
Spine1  6.64694 0.404937 -2.16079
HEad  -6.32987 1.42225 -1.96644
LeftShoulder1  0.906953 -2.50926 -7.45099
LeftArm  -13.809 8.52 2.34478
LeftForeArm  10.1758 -2.29551 -3.16201
LeftHand  -0.244104 0.0205437 5.32207
RightShoulder  0.661095 1.46467 5.54988
RightArm  -18.1632 1.47819 -1.43778
RightForeArm  1.17501 0.239518 3.92087
RightHand  -0.87091 2.25811 -13.3765
LeftUpLeg  2.24223 5.35033 3.82359
LeftLeg  0.533369 11.4305 -3.90537
LeftFoot  -2.46074 0.175503 -1.88385
LeftToes  4.36525e-011 -9.98543e-011 1.0027e-011
